<?xml version="1.0" encoding="UTF-8" standalone="no"?>
<!-- Created with Inkscape (http://www.inkscape.org/) -->

<svg
   width="210mm"
   height="297mm"
   viewBox="0 0 210 297"
   version="1.1"
   id="svg329"
   inkscape:version="1.2.1 (9c6d41e, 2022-07-14)"
   sodipodi:docname="purple_tornado.svg"
   xmlns:inkscape="http://www.inkscape.org/namespaces/inkscape"
   xmlns:sodipodi="http://sodipodi.sourceforge.net/DTD/sodipodi-0.dtd"
   xmlns="http://www.w3.org/2000/svg"
   xmlns:svg="http://www.w3.org/2000/svg">
  <sodipodi:namedview
     id="namedview331"
     pagecolor="#ffffff"
     bordercolor="#000000"
     borderopacity="0.25"
     inkscape:showpageshadow="2"
     inkscape:pageopacity="0.0"
     inkscape:pagecheckerboard="0"
     inkscape:deskcolor="#d1d1d1"
     inkscape:document-units="mm"
     showgrid="false"
     inkscape:zoom="0.5"
     inkscape:cx="51"
     inkscape:cy="387"
     inkscape:window-width="1920"
     inkscape:window-height="1016"
     inkscape:window-x="0"
     inkscape:window-y="27"
     inkscape:window-maximized="1"
     inkscape:current-layer="layer1" />
  <defs
     id="defs326" />
  <g
     inkscape:label="Layer 1"
     inkscape:groupmode="layer"
     id="layer1">
    <path
       d="m 87.775064,234.48652 c -1.183285,1.9856 -6.760616,8.33893 -17.070158,4.76536 C 60.395364,235.67828 58.02911,222.574 58.02911,222.574 c 16.731976,15.68471 29.745954,11.91252 29.745954,11.91252 z m 22.815946,-18.86143 c 0,0 -3.88709,13.50089 -27.041513,12.11116 -23.154133,-1.3897 -31.266513,-23.22952 -31.266513,-23.22952 0,0 20.450012,21.24393 58.308026,11.11836 z m 27.04607,-33.64555 c 2.71742,4.61105 3.03746,24.90971 -38.345643,27.47135 -42.910592,2.65596 -58.877201,-24.9885 -58.877201,-24.9885 0,0 18.116075,13.83325 51.932702,13.47854 33.816642,-0.35472 45.290142,-15.96139 45.290142,-15.96139 z m 6.03869,-61.00803 -16.30446,7.44865 c 0,0 -26.74351,-7.61962 -79.193425,5.23498 0,0 35.412977,-19.77761 95.497885,-12.68363 z m -39.79131,17.92856 c -45.47373,9.4853 -83.922642,6.69063 -85.87705,-6.24235 -1.95504,-12.93264 33.324474,-31.10593 78.798508,-40.591616 45.474292,-9.484984 83.922932,-6.69033 85.877332,6.242695 1.95504,12.932271 -33.32446,31.105931 -78.79879,40.591271 z m 96.2657,-40.843477 C 196.68337,75.118272 149.82646,65.710978 95.491909,77.044283 41.157914,88.377945 -0.07816193,116.16037 3.3892524,139.09762 6.8560579,162.0363 53.71324,171.44357 108.04691,160.10992 c 18.2954,-3.81619 35.10169,-9.49881 49.22042,-16.23204 0.26148,5.38964 -5.25335,14.94376 -39.85984,24.62313 -19.021868,5.32046 -60.386854,10.99563 -92.693823,-2.12819 0,0 25.998064,34.58127 100.544103,15.9614 61.31109,-15.31372 54.02813,-41.11091 48.08788,-47.31031 18.1686,-11.61245 28.62066,-24.9537 26.80451,-36.967317"
       style="fill:#2051c6;fill-opacity:1;fill-rule:nonzero;stroke:none;stroke-width:0.0327254"
       id="path62" />
  </g>
</svg>
