<?xml version="1.0" encoding="UTF-8" standalone="no"?>
<!-- Generator: Adobe Illustrator 16.0.0, SVG Export Plug-In . SVG Version: 6.00 Build 0)  -->

<svg
   version="1.1"
   id="Capa_1"
   x="0px"
   y="0px"
   width="475.082px"
   height="475.081px"
   viewBox="0 0 475.082 475.081"
   style="enable-background:new 0 0 475.082 475.081;"
   xml:space="preserve"
   sodipodi:docname="quote.svg"
   inkscape:version="1.2.1 (9c6d41e, 2022-07-14)"
   xmlns:inkscape="http://www.inkscape.org/namespaces/inkscape"
   xmlns:sodipodi="http://sodipodi.sourceforge.net/DTD/sodipodi-0.dtd"
   xmlns="http://www.w3.org/2000/svg"
   xmlns:svg="http://www.w3.org/2000/svg"><defs
   id="defs122" /><sodipodi:namedview
   id="namedview120"
   pagecolor="#ffffff"
   bordercolor="#000000"
   borderopacity="0.25"
   inkscape:showpageshadow="2"
   inkscape:pageopacity="0.0"
   inkscape:pagecheckerboard="0"
   inkscape:deskcolor="#d1d1d1"
   showgrid="false"
   inkscape:zoom="1.7891686"
   inkscape:cx="237.81996"
   inkscape:cy="237.81996"
   inkscape:window-width="1920"
   inkscape:window-height="1016"
   inkscape:window-x="0"
   inkscape:window-y="27"
   inkscape:window-maximized="1"
   inkscape:current-layer="Capa_1" />
<g
   id="g87"
   style="fill:#2051c6;fill-opacity:1">
	<g
   id="g85"
   style="fill:#2051c6;fill-opacity:1">
		<path
   d="M164.45,219.27h-63.954c-7.614,0-14.087-2.664-19.417-7.994c-5.327-5.33-7.994-11.801-7.994-19.417v-9.132    c0-20.177,7.139-37.401,21.416-51.678c14.276-14.272,31.503-21.411,51.678-21.411h18.271c4.948,0,9.229-1.809,12.847-5.424    c3.616-3.617,5.424-7.898,5.424-12.847V54.819c0-4.948-1.809-9.233-5.424-12.85c-3.617-3.612-7.898-5.424-12.847-5.424h-18.271    c-19.797,0-38.684,3.858-56.673,11.563c-17.987,7.71-33.545,18.132-46.68,31.267c-13.134,13.129-23.553,28.688-31.262,46.677    C3.855,144.039,0,162.931,0,182.726v200.991c0,15.235,5.327,28.171,15.986,38.834c10.66,10.657,23.606,15.985,38.832,15.985    h109.639c15.225,0,28.167-5.328,38.828-15.985c10.657-10.663,15.987-23.599,15.987-38.834V274.088    c0-15.232-5.33-28.168-15.994-38.832C192.622,224.6,179.675,219.27,164.45,219.27z"
   id="path81"
   style="fill:#2051c6;fill-opacity:1" />
		<path
   d="M459.103,235.256c-10.656-10.656-23.599-15.986-38.828-15.986h-63.953c-7.61,0-14.089-2.664-19.41-7.994    c-5.332-5.33-7.994-11.801-7.994-19.417v-9.132c0-20.177,7.139-37.401,21.409-51.678c14.271-14.272,31.497-21.411,51.682-21.411    h18.267c4.949,0,9.233-1.809,12.848-5.424c3.613-3.617,5.428-7.898,5.428-12.847V54.819c0-4.948-1.814-9.233-5.428-12.85    c-3.614-3.612-7.898-5.424-12.848-5.424h-18.267c-19.808,0-38.691,3.858-56.685,11.563c-17.984,7.71-33.537,18.132-46.672,31.267    c-13.135,13.129-23.559,28.688-31.265,46.677c-7.707,17.987-11.567,36.879-11.567,56.674v200.991    c0,15.235,5.332,28.171,15.988,38.834c10.657,10.657,23.6,15.985,38.828,15.985h109.633c15.229,0,28.171-5.328,38.827-15.985    c10.664-10.663,15.985-23.599,15.985-38.834V274.088C475.082,258.855,469.76,245.92,459.103,235.256z"
   id="path83"
   style="fill:#2051c6;fill-opacity:1" />
	</g>
</g>
<g
   id="g89"
   style="fill:#2051c6;fill-opacity:1">
</g>
<g
   id="g91"
   style="fill:#2051c6;fill-opacity:1">
</g>
<g
   id="g93"
   style="fill:#2051c6;fill-opacity:1">
</g>
<g
   id="g95"
   style="fill:#2051c6;fill-opacity:1">
</g>
<g
   id="g97"
   style="fill:#2051c6;fill-opacity:1">
</g>
<g
   id="g99"
   style="fill:#2051c6;fill-opacity:1">
</g>
<g
   id="g101"
   style="fill:#2051c6;fill-opacity:1">
</g>
<g
   id="g103"
   style="fill:#2051c6;fill-opacity:1">
</g>
<g
   id="g105"
   style="fill:#2051c6;fill-opacity:1">
</g>
<g
   id="g107"
   style="fill:#2051c6;fill-opacity:1">
</g>
<g
   id="g109"
   style="fill:#2051c6;fill-opacity:1">
</g>
<g
   id="g111"
   style="fill:#2051c6;fill-opacity:1">
</g>
<g
   id="g113"
   style="fill:#2051c6;fill-opacity:1">
</g>
<g
   id="g115"
   style="fill:#2051c6;fill-opacity:1">
</g>
<g
   id="g117"
   style="fill:#2051c6;fill-opacity:1">
</g>
</svg>
