<?xml version="1.0" encoding="UTF-8" standalone="no"?>
<svg
   width="16px"
   height="16px"
   viewBox="0 0 16 16"
   version="1.1"
   id="svg64"
   sodipodi:docname="white_arrow.svg"
   inkscape:version="1.2.1 (9c6d41e, 2022-07-14)"
   xmlns:inkscape="http://www.inkscape.org/namespaces/inkscape"
   xmlns:sodipodi="http://sodipodi.sourceforge.net/DTD/sodipodi-0.dtd"
   xmlns="http://www.w3.org/2000/svg"
   xmlns:svg="http://www.w3.org/2000/svg"
   xmlns:rdf="http://www.w3.org/1999/02/22-rdf-syntax-ns#"
   xmlns:cc="http://creativecommons.org/ns#"
   xmlns:dc="http://purl.org/dc/elements/1.1/">
  <defs
     id="defs68" />
  <sodipodi:namedview
     id="namedview66"
     pagecolor="#ffffff"
     bordercolor="#000000"
     borderopacity="0.25"
     inkscape:showpageshadow="2"
     inkscape:pageopacity="0.0"
     inkscape:pagecheckerboard="0"
     inkscape:deskcolor="#d1d1d1"
     showgrid="false"
     inkscape:zoom="53.125"
     inkscape:cx="8.0094118"
     inkscape:cy="8.0094118"
     inkscape:window-width="1920"
     inkscape:window-height="1016"
     inkscape:window-x="0"
     inkscape:window-y="27"
     inkscape:window-maximized="1"
     inkscape:current-layer="svg64" />
  <!-- Generator: Sketch 52.5 (67469) - http://www.bohemiancoding.com/sketch -->
  <title
     id="title52">arrow_back</title>
  <desc
     id="desc54">Created with Sketch.</desc>
  <g
     id="Icons"
     stroke="none"
     stroke-width="1"
     fill="none"
     fill-rule="evenodd">
    <g
       id="Rounded"
       transform="translate(-580.000000, -3436.000000)">
      <g
         id="Navigation"
         transform="translate(100.000000, 3378.000000)">
        <g
           id="-Round-/-Navigation-/-arrow_back"
           transform="translate(476.000000, 54.000000)">
          <g
             transform="translate(0.000000, 0.000000)"
             id="g58">
            <polygon
               id="Path"
               points="0 0 24 0 24 24 0 24" />
            <path
               d="M19,11 L7.83,11 L12.71,6.12 C13.1,5.73 13.1,5.09 12.71,4.7 C12.32,4.31 11.69,4.31 11.3,4.7 L4.71,11.29 C4.32,11.68 4.32,12.31 4.71,12.7 L11.3,19.29 C11.69,19.68 12.32,19.68 12.71,19.29 C13.1,18.9 13.1,18.27 12.71,17.88 L7.83,13 L19,13 C19.55,13 20,12.55 20,12 C20,11.45 19.55,11 19,11 Z"
               id="🔹-Icon-Color"
               fill="#1D1D1D"
               style="fill:#ffffff;fill-opacity:1" />
          </g>
        </g>
      </g>
    </g>
  </g>
  <metadata
     id="metadata919">
    <rdf:RDF>
      <cc:Work
         rdf:about="">
        <dc:title>arrow_back</dc:title>
      </cc:Work>
    </rdf:RDF>
  </metadata>
</svg>
